<?xml version="1.0" encoding="UTF-8"?>
<svg id="Calque_1" xmlns="http://www.w3.org/2000/svg" version="1.1" viewBox="0 0 1200 500">
  <!-- Generator: Adobe Illustrator 30.0.0, SVG Export Plug-In . SVG Version: 2.1.1 Build 123)  -->
  <defs>
    <style>
      .st0 {
        fill: #fff;
      }
    </style>
  </defs>
  <path class="st0" d="M58.53,303.31c-8.74-9.82-13.11-23.31-13.11-40.48,0-18.67,4.64-32.89,13.92-42.66,9.28-9.77,23.21-14.65,41.77-14.65,6.15,0,11.82.43,17,1.3,5.18.87,9.5,1.94,12.95,3.24l-3.24,52.13c-3.78-1.73-8.1-3.08-12.95-4.05-4.86-.97-9.39-1.46-13.6-1.46-8.53,0-14.84,1.4-18.94,4.21-4.1,2.81-6.15,6.96-6.15,12.47s2.27,9.42,6.8,12.06c4.53,2.65,10.52,3.97,17.97,3.97,5.29,0,10.63-.54,16.03-1.62,5.4-1.08,10.14-2.37,14.25-3.88l-1.62,27.36c-3.02,1.84-7.42,3.43-13.19,4.78-5.78,1.35-11.79,2.02-18.05,2.02-17.81,0-31.08-4.91-39.83-14.73Z"/>
  <path class="st0" d="M150.89,311c-6.42-3.94-11.01-9.15-13.76-15.62-2.75-6.48-4.13-13.71-4.13-21.69,0-8.53,1.51-16.13,4.53-22.83,3.02-6.69,7.66-11.95,13.92-15.79,6.26-3.83,14.14-5.75,23.64-5.75,7.77,0,14.41,1.48,19.91,4.45,5.5,2.97,9.66,6.96,12.47,11.98,2.81,5.02,4.21,10.5,4.21,16.43s-1.24,11.09-3.72,15.14c-2.48,4.05-7.56,7.5-15.22,10.36-7.67,2.86-18.94,4.88-33.84,6.07l.16-7.93c4.53,0,7.66-.67,9.39-2.02,1.73-1.35,2.59-3.43,2.59-6.23,0-2.05-.4-3.56-1.21-4.53-.81-.97-1.92-1.46-3.32-1.46-1.94,0-3.4.73-4.37,2.19-.97,1.46-1.46,3.48-1.46,6.07,0,3.89.32,6.8.97,8.74l1.78,1.62c.86,1.94,2.56,3.27,5.1,3.97,2.53.7,5.96,1.05,10.28,1.05,4.64,0,9.6-.7,14.9-2.11,5.29-1.4,10.52-3.51,15.7-6.31l-1.46,21.86c-3.56,2.38-8.31,4.35-14.25,5.91-5.94,1.56-11.77,2.35-17.49,2.35-10.47,0-18.92-1.97-25.34-5.91Z"/>
  <path class="st0" d="M217.27,311.97c-3.19-3.29-4.78-7.42-4.78-12.39s1.27-8.8,3.8-11.82c2.53-3.02,6.72-5.29,12.55-6.8,5.83-1.51,13.6-2.27,23.31-2.27l-.16,6.96c-3.78.11-6.5.65-8.18,1.62-1.67.97-2.51,2.54-2.51,4.7,0,1.94.4,3.4,1.21,4.37s1.97,1.46,3.48,1.46c1.73,0,3.02-.65,3.89-1.94.86-1.3,1.29-3.62,1.29-6.96v-6.96l-.97-3.08c0-1.94-.73-3.34-2.19-4.21-1.46-.86-4.02-1.3-7.69-1.3-4.21,0-8.37.41-12.47,1.21-4.1.81-7.67,1.92-10.69,3.32l-1.46-37.24c3.89-3.56,9.09-6.34,15.62-8.34,6.53-2,14.38-3,23.56-3,11.66,0,20.86,2.4,27.6,7.2,6.74,4.8,10.12,12.01,10.12,21.61,0,1.73-.06,3.56-.16,5.5-.11,1.94-.22,3.99-.32,6.15-.54,5.72-.81,11.39-.81,17,0,1.94.24,3.29.73,4.05.49.76,1.43,1.13,2.83,1.13s3.18-.54,5.34-1.62l-.97,21.37c-1.62,1.62-4.48,2.91-8.58,3.89-4.1.97-9.01,1.46-14.73,1.46-7.67,0-13.66-1.62-17.97-4.86-4.32-3.24-6.31-8.47-5.99-15.7l1.46-.16c-.22,3.99-1.19,7.56-2.91,10.69-1.73,3.13-4.18,5.56-7.37,7.29-3.18,1.73-6.94,2.59-11.25,2.59-6.58,0-11.47-1.64-14.65-4.94Z"/>
  <path class="st0" d="M309.39,291.49c1.24-.65,1.86-2,1.86-4.05v-.16c0-1.4-.38-2.32-1.13-2.75-.76-.43-1.89-.65-3.4-.65-1.3,0-2.59.11-3.89.32l-.97-48.73c2.27-1.83,5.1-3.26,8.5-4.29,3.4-1.02,6.83-1.54,10.28-1.54,6.58,0,11.2,1.29,13.84,3.89,2.64,2.59,3.97,6.86,3.97,12.79,0,3.35-.11,7.02-.32,11.01-.22,4-.43,7.93-.65,11.82-.22,3.46-.43,6.96-.65,10.52l.16,13.28h6.96l-.32,22.5h-41.77v-22.99c3.78,0,6.29-.32,7.53-.97ZM361.36,315.53c-3.29-.92-5.86-2.51-7.69-4.78-1.84-2.27-2.75-5.29-2.75-9.07,0-1.51.11-3.67.32-6.48.11-1.73.21-3.4.32-5.02,0-2.48-.46-4.26-1.38-5.34-.92-1.08-2.24-1.62-3.97-1.62-2.27,0-4.18,1-5.75,3-1.57,2-2.73,5.1-3.48,9.31l-2.59-2.43c1.29-13.92,3.24-25.47,5.83-34.65,2.59-9.17,6.4-16.27,11.41-21.29,5.02-5.02,11.63-7.53,19.83-7.53,7.34,0,12.87,2.46,16.6,7.37,3.72,4.91,5.59,11.36,5.59,19.35,0,3.46-.24,6.69-.73,9.71-.49,3.02-1.21,6.75-2.19,11.17-1.19,5.29-1.78,8.96-1.78,11.01,0,3.24,1.4,4.86,4.21,4.86.97,0,2.32-.21,4.05-.65v19.43c-1.51,1.4-4.61,2.59-9.31,3.56s-9.47,1.46-14.33,1.46-8.93-.46-12.22-1.38Z"/>
  <path class="st0" d="M419.08,259.03c-1.51-1.13-3.62-1.7-6.31-1.7v-50.35h52.13v49.87c-2.27,0-3.89.19-4.86.57-.97.38-1.48,1-1.54,1.86-.06.87.13,2.21.57,4.05l.65,2.59c.75,2.7,1.51,4.56,2.27,5.59.75,1.03,2.05,1.54,3.89,1.54h2.59c1.51,0,2.75-.46,3.72-1.38.97-.92,1.78-2.67,2.43-5.26l.81-2.92c.65-2.7.67-4.48.08-5.34-.59-.86-2.51-1.29-5.75-1.29v-49.87h48.25v50.35c-2.59,0-4.64.59-6.15,1.78-1.51,1.19-3.24,3.46-5.18,6.8l-19.43,33.51h-44.04l-18.62-33.03c-2.16-3.78-3.99-6.23-5.5-7.37ZM429.93,293.11l10.2-1.29v-7.45h50.51v7.45l10.2,1.29v22.34h-70.91v-22.34Z"/>
  <path class="st0" d="M534.84,311.65c-6.26-3.72-10.96-8.8-14.09-15.22-3.13-6.42-4.7-13.62-4.7-21.61,0-13.92,3.59-24.99,10.77-33.19,7.18-8.2,18.05-12.3,32.62-12.3,8.74,0,16.24,1.81,22.5,5.42,6.26,3.62,11.03,8.61,14.33,14.98,3.29,6.37,4.94,13.66,4.94,21.86,0,14.57-3.83,25.82-11.49,33.76-7.67,7.93-18.4,11.9-32.22,11.9-8.85,0-16.41-1.86-22.67-5.59ZM555.88,284.85c0-4.21-.57-7.58-1.7-10.12-1.13-2.54-2.78-3.8-4.94-3.8-4.21,0-6.31,4.21-6.31,12.63,0,4.1.57,7.39,1.7,9.88,1.13,2.48,2.83,3.72,5.1,3.72,4.1,0,6.15-4.1,6.15-12.3Z"/>
  <path class="st0" d="M609.47,312.46c-3.67-2.97-5.5-7.1-5.5-12.39,0-3.89.86-7.5,2.59-10.85,1.73-3.34,4.32-6.26,7.77-8.74l1.13,2.59h-12.95v-51.81h30.44v51.32c0,3.89.54,6.48,1.62,7.77,1.08,1.29,2.59,1.94,4.53,1.94s3.56-.67,4.86-2.02c1.29-1.35,2.48-3.75,3.56-7.2h-8.58v-51.81h46.63l-.48,24.61c-.22,10.36-.43,20.72-.65,31.08,0,2.05.24,3.51.73,4.37.49.87,1.59,1.29,3.32,1.29,1.4,0,2.75-.32,4.05-.97l-.16,20.72c-2.27,1.4-5.37,2.51-9.31,3.32-3.94.81-7.91,1.21-11.9,1.21-5.72,0-10.23-.78-13.52-2.35-3.29-1.56-5.69-4.13-7.21-7.69-1.51-3.56-2.27-8.36-2.27-14.41l4.05,1.94c-1.4,4.97-3.54,9.15-6.39,12.55-2.86,3.4-6.15,5.91-9.88,7.53-3.72,1.62-7.69,2.43-11.9,2.43-6.05,0-10.9-1.48-14.57-4.45Z"/>
  <path class="st0" d="M702,291.33c1.24-.65,1.86-1.94,1.86-3.89v-.16c0-1.4-.38-2.32-1.13-2.75-.76-.43-1.89-.65-3.4-.65s-2.81.11-3.88.32l-1.13-48.57c2.05-1.73,4.7-3.16,7.93-4.29,3.24-1.13,6.64-1.7,10.2-1.7,5.5,0,9.88,1.21,13.11,3.64s4.86,6.07,4.86,10.93l-1.46,42.58,1.46,5.67,19.27.65v22.34h-55.05l-.16-22.99c3.78-.11,6.29-.49,7.53-1.13ZM732.36,251.42c1.94-8.69,4.34-14.52,7.2-17.49,2.86-2.97,6.83-4.45,11.9-4.45,3.13,0,5.77.59,7.93,1.78l-1.94,53.27c-4.75-.43-8.53-.65-11.33-.65-5.94,0-9.96.78-12.06,2.35-2.11,1.57-3.16,3.8-3.16,6.72l-3.4-2.27c1.29-17.49,2.91-30.57,4.86-39.26Z"/>
  <path class="st0" d="M779.71,287.76c1.13-.32,2.05-1.16,2.75-2.51.7-1.35,1.05-3.53,1.05-6.56v-14.08c0-2.37-.27-4.07-.81-5.1-.54-1.03-1.35-1.64-2.43-1.86-1.08-.21-2.97-.32-5.67-.32v-50.35h42.09l-1.13,22.18c-.32,6.15-.62,13.17-.89,21.05-.27,7.88-.46,14.03-.57,18.46v10.52l-1.13,3.56,1.94,32.7h-40.31v-27.2c2.27,0,3.97-.16,5.1-.49ZM825.45,229.48c4.75-9.93,9.55-16.43,14.41-19.51,4.86-3.08,10.79-4.61,17.81-4.61,2.37,0,4.99.38,7.85,1.13,2.86.76,4.88,1.67,6.07,2.75l-2.43,53.43c-1.84-.65-3.46-1.13-4.86-1.46-1.4-.32-3.02-.49-4.86-.49-4.53,0-8.34,1-11.41,3-3.08,2-6.72,5.53-10.93,10.6l-26.07,6.48v-6.48c4.86-19.97,9.66-34.92,14.41-44.85ZM835.97,313.26c-4.75-2.32-9.15-6.1-13.2-11.33-4.05-5.23-7.96-12.28-11.74-21.13l22.18-12.95c5.4,4.64,9.88,8.12,13.44,10.44,3.56,2.32,6.61,3.86,9.15,4.61,2.54.76,5.26,1.13,8.18,1.13,2.05,0,4.21-.38,6.48-1.13l-.16,31.08c-2.27.87-4.78,1.54-7.53,2.02-2.75.49-6.34.73-10.77.73-5.94,0-11.28-1.16-16.03-3.48Z"/>
  <path class="st0" d="M879.36,291.65c1.3-.54,1.94-1.51,1.94-2.91v-.81c0-1.51-.32-2.53-.97-3.08-.65-.54-1.78-.81-3.4-.81l-2.59.16-.97-46.47c3.24-1.51,6.42-2.64,9.55-3.4,3.13-.75,6.53-1.13,10.2-1.13,5.94,0,10.61.62,14.01,1.86,3.4,1.24,5.91,3.4,7.53,6.48s2.43,7.53,2.43,13.36c0,1.84-.16,4.97-.49,9.39-.54,11.55-.92,20.83-1.13,27.85l5.67.81v22.5h-47.76v-22.99c2.7,0,4.7-.27,5.99-.81ZM880.33,227.13c-2.91-2.53-4.37-6.83-4.37-12.87,0-5.18,1.48-9.04,4.45-11.58,2.97-2.54,7.96-3.8,14.98-3.8,7.66,0,12.95,1.21,15.87,3.64,2.92,2.43,4.37,6.5,4.37,12.22s-1.57,9.71-4.7,12.3c-3.13,2.59-8.15,3.89-15.06,3.89-7.45,0-12.63-1.27-15.54-3.8Z"/>
  <path class="st0" d="M933.19,305.33c-6.96-7.71-10.44-18-10.44-30.84,0-14.03,3.51-25.07,10.52-33.11,7.02-8.04,18.13-12.06,33.35-12.06,5.83,0,10.71.43,14.65,1.29,3.94.87,8.02,2.27,12.22,4.21l-4.86,45.49c-4.21-1.4-8.2-2.4-11.98-3-3.78-.59-8.04-.89-12.79-.89s-8.61.7-10.93,2.11c-2.32,1.4-3.48,3.46-3.48,6.15,0,3.13,1.43,5.29,4.29,6.48,2.86,1.19,6.99,1.78,12.39,1.78,4.96,0,9.71-.49,14.25-1.46,4.53-.97,8.36-2.16,11.5-3.56l-1.62,23.48c-2.7,1.51-6.26,2.81-10.69,3.89-4.43,1.08-9.39,1.62-14.89,1.62-14.03,0-24.53-3.86-31.49-11.58Z"/>
  <path class="st0" d="M1001.59,291.97c1.08-.32,1.81-1.08,2.19-2.27.38-1.19.57-3.34.57-6.48v-25.09c0-2.48-.19-4.34-.57-5.58-.38-1.24-1-2.11-1.86-2.59-.87-.49-2.16-.73-3.88-.73-.97,0-1.68.11-2.11.32l-.32-47.11c2.91-1.29,5.94-2.29,9.07-3,3.13-.7,6.58-1.05,10.36-1.05,4.21,0,7.72.87,10.52,2.59,2.81,1.73,4.91,4.16,6.31,7.29,1.4,3.13,2.11,6.86,2.11,11.17,0,4.97-.43,16.19-1.29,33.68-.87,15.97-1.4,24.72-1.62,26.23l2.59,5.5.49,30.6h-38.37v-22.99c2.8,0,4.75-.16,5.83-.49ZM1052.91,313.35c-4.1-2.37-8.09-6.15-11.98-11.33-3.88-5.18-9.17-13.38-15.87-24.61l6.15-5.67c2.59-10.25,5.5-18.43,8.74-24.53,3.24-6.1,7.07-10.52,11.49-13.28,4.43-2.75,9.82-4.13,16.19-4.13,2.91,0,5.75.24,8.5.73,2.75.49,4.72,1.16,5.91,2.02l-2.75,49.22c-4.53-1.19-8.53-1.78-11.98-1.78-3.24,0-6.53.62-9.88,1.86-3.35,1.24-5.4,3-6.15,5.26l-.65-7.61c3.02,3.56,6.72,6.1,11.09,7.61,4.37,1.51,8.45,2.27,12.22,2.27,1.62,0,2.99-.13,4.13-.4,1.13-.27,2.24-.67,3.32-1.21l-.32,26.23c-1.62.97-3.56,1.7-5.83,2.19-2.27.49-4.64.73-7.12.73-6.04,0-11.12-1.19-15.22-3.56Z"/>
  <path class="st0" d="M1099.78,315.29c-5.99-1.08-10.98-2.59-14.98-4.53l.16-21.69c5.29,2.38,10.85,4.18,16.68,5.42,5.83,1.24,11.33,1.86,16.52,1.86,2.7,0,4.5-.16,5.42-.49.92-.32,1.38-.86,1.38-1.62,0-.43-.22-.81-.65-1.13-.43-.32-1.29-.59-2.59-.81-1.29-.21-2.97-.38-5.02-.49-9.61-.75-16.81-2.27-21.62-4.53s-7.99-5.37-9.55-9.31c-1.56-3.94-2.35-9.36-2.35-16.27,0-11.98,3.56-20.37,10.69-25.18,7.12-4.8,16.62-7.2,28.49-7.2,6.37,0,12.33.7,17.89,2.1,5.56,1.4,10.33,3.4,14.33,5.99l-4.05,44.04c-10.47-3.24-20.83-4.86-31.08-4.86-4.32,0-7.37.16-9.15.49-1.78.32-2.67.87-2.67,1.62,0,.65.65,1.13,1.94,1.46,1.29.32,4.43.76,9.39,1.3,10.14,1.19,17.65,2.4,22.5,3.64,4.86,1.24,8.26,2.94,10.2,5.1,1.94,2.16,2.91,5.24,2.91,9.23,0,5.61-3.05,9.93-9.15,12.95-6.1,3.02-15.36,4.53-27.77,4.53-5.94,0-11.9-.54-17.89-1.62Z"/>
</svg>